<?xml version="1.0" encoding="utf-8"?>
<!-- Generator: Adobe Illustrator 18.0.0, SVG Export Plug-In . SVG Version: 6.00 Build 0)  -->
<!DOCTYPE svg PUBLIC "-//W3C//DTD SVG 1.1//EN" "http://www.w3.org/Graphics/SVG/1.1/DTD/svg11.dtd">
<svg version="1.1" id="Layer_1" xmlns="http://www.w3.org/2000/svg" xmlns:xlink="http://www.w3.org/1999/xlink" x="0px" y="0px"
	 viewBox="0 0 389.5 335.6" enable-background="new 0 0 389.5 335.6" xml:space="preserve">
<g>
	<polygon fill="#00C4CC" points="381,73 381,128.1 295.9,78.8 295.9,23.8 	"/>
	<linearGradient id="SVGID_1_" gradientUnits="userSpaceOnUse" x1="5.5492" y1="250.1575" x2="389.523" y2="250.1575">
		<stop  offset="0" style="stop-color:#42138B"/>
		<stop  offset="1" style="stop-color:#00C4CC"/>
	</linearGradient>
	<path fill="url(#SVGID_1_)" d="M382.4,165.5l-18.8,12l-8.4,7.8L34.7,254.1l-5.4-4.9l-23.8-5v18.4l0,0c0,1.1,0.5,2.1,1.5,2.7
		l3.8,2.2l116.2,67.2l0,0c1.7,1,3.9,1,5.6,0l239.5-138.3l14.6-8.4c1.9-1.1,2.8-3,2.7-4.9l0,0v-18.4L382.4,165.5z"/>
	<linearGradient id="SVGID_2_" gradientUnits="userSpaceOnUse" x1="130.712" y1="250.1241" x2="389.523" y2="250.1241">
		<stop  offset="0" style="stop-color:#00C4CC"/>
		<stop  offset="1" style="stop-color:#7D2AE8"/>
	</linearGradient>
	<path fill="url(#SVGID_2_)" d="M389.5,183.2L389.5,183.2l0-18.4l-7.1,0.7l-18.8,12l-8.4,7.8l-105.3,22.6L130.7,310.8v24.7
		c0.7-0.1,1.4-0.3,2-0.7l239.5-138.3l14.6-8.4C388.7,187,389.6,185.1,389.5,183.2z"/>
	<linearGradient id="SVGID_3_" gradientUnits="userSpaceOnUse" x1="13.6939" y1="261.9429" x2="20.2266" y2="261.9429">
		<stop  offset="0" style="stop-color:#00C4CC"/>
		<stop  offset="1" style="stop-color:#7D2AE8"/>
	</linearGradient>
	<polygon fill="url(#SVGID_3_)" points="20.2,260.3 20.2,267.4 13.7,263.6 13.7,256.5 	"/>
	<linearGradient id="SVGID_4_" gradientUnits="userSpaceOnUse" x1="22.6006" y1="267.0601" x2="29.1333" y2="267.0601">
		<stop  offset="0" style="stop-color:#00C4CC"/>
		<stop  offset="1" style="stop-color:#7D2AE8"/>
	</linearGradient>
	<polygon fill="url(#SVGID_4_)" points="29.1,265.4 29.1,272.5 22.6,268.7 22.6,261.6 	"/>
	<linearGradient id="SVGID_5_" gradientUnits="userSpaceOnUse" x1="31.5069" y1="272.1783" x2="38.0391" y2="272.1783">
		<stop  offset="0" style="stop-color:#00C4CC"/>
		<stop  offset="1" style="stop-color:#7D2AE8"/>
	</linearGradient>
	<polygon fill="url(#SVGID_5_)" points="38,270.5 38,277.6 31.5,273.8 31.5,266.7 	"/>
	<linearGradient id="SVGID_6_" gradientUnits="userSpaceOnUse" x1="100.8931" y1="316.5913" x2="121.2193" y2="316.5913">
		<stop  offset="0" style="stop-color:#00C4CC"/>
		<stop  offset="1" style="stop-color:#7D2AE8"/>
	</linearGradient>
	<polygon fill="url(#SVGID_6_)" points="121.2,318.9 121.2,326 100.9,314.3 100.9,307.2 	"/>
	<linearGradient id="SVGID_7_" gradientUnits="userSpaceOnUse" x1="160.108" y1="303.9287" x2="180.4341" y2="303.9287">
		<stop  offset="0" style="stop-color:#00C4CC"/>
		<stop  offset="1" style="stop-color:#7D2AE8"/>
	</linearGradient>
	<polygon fill="url(#SVGID_7_)" points="160.1,306.3 160.1,313.4 180.4,301.6 180.4,294.5 	"/>
	<polygon fill="#00C4CC" points="33.8,232.7 253.2,106 369.4,173.2 150,299.9 	"/>
	<polygon fill="#6ED5EF" points="253.2,106 150,299.9 33.8,232.7 	"/>
	<polygon fill="#6EA7EF" points="360.3,178.5 369.4,173.2 253.2,106 244.1,111.3 	"/>
	<polygon fill="#6EA7EF" points="150,299.9 159,294.7 42.8,227.5 33.8,232.7 	"/>
	<polygon fill="#E6E7E8" points="366.7,173.2 363.1,171.1 356.9,174.7 360.5,176.8 	"/>
	<polygon fill="#E6E7E8" points="362.3,170.6 358.7,168.6 352.5,172.2 356.1,174.2 	"/>
	<polygon fill="#E6E7E8" points="357.9,168.1 354.3,166 348.1,169.6 351.7,171.7 	"/>
	<polygon fill="#E6E7E8" points="353.5,165.6 349.9,163.5 343.7,167.1 347.3,169.2 	"/>
	<polygon fill="#E6E7E8" points="314.4,143.1 304.2,137.1 298,140.7 308.2,146.7 	"/>
	<polygon fill="#E6E7E8" points="155.7,294.3 145.4,288.4 139.2,291.9 149.4,297.9 	"/>
	<polygon fill="#E6E7E8" points="101.5,263 91.3,257.1 85.1,260.7 95.3,266.6 	"/>
	<polygon fill="#E6E7E8" points="53.5,235.2 43.3,229.3 37.1,232.9 47.3,238.8 	"/>
	<linearGradient id="SVGID_8_" gradientUnits="userSpaceOnUse" x1="5.545" y1="204.6191" x2="389.5296" y2="204.6191">
		<stop  offset="0" style="stop-color:#00C4CC"/>
		<stop  offset="1" style="stop-color:#42138B"/>
	</linearGradient>
	<path fill="url(#SVGID_8_)" d="M386.8,160.2l-0.2-0.1L270.4,92.9h0c-1.7-1-3.9-1-5.6,0L31,227.9L7.1,241.6c-2.1,1.2-2.1,4.1,0,5.3
		l3.8,2.2l116.2,67.2l0,0c1.7,1,3.9,1,5.6,0l239.5-138.3l14.6-8.4C390.4,167.6,390.4,162.3,386.8,160.2z M150,299.9L33.8,232.7
		L253.2,106l116.2,67.2L150,299.9z"/>
	<g>
		<path opacity="0.3" d="M361.1,198C361.1,198,361.1,198,361.1,198c-0.1-0.1-0.1-0.1-0.1-0.1c0,0,0,0,0,0c0,0-0.1-0.1-0.1-0.1
			c0,0,0,0,0,0c0,0,0-0.1-0.1-0.1c0,0,0,0,0,0c0,0,0-0.1-0.1-0.1c0,0,0,0,0,0c0,0-0.1-0.1-0.1-0.1c0,0-0.1-0.1-0.1-0.1c0,0,0,0,0,0
			c0,0,0-0.1-0.1-0.1c0,0,0,0,0,0c0,0,0-0.1,0-0.1c0,0,0-0.1,0-0.1c0,0,0-0.1,0-0.1c0,0,0-0.1,0-0.1c0,0,0-0.1,0-0.1
			c0,0,0-0.1,0-0.1c0,0,0-0.1,0-0.1c0,0,0-0.1,0-0.1c0,0,0-0.1,0-0.1c0,0,0-0.1,0-0.1c0,0,0-0.1,0-0.1c0,0,0,0,0-0.1
			c0-0.1,0-0.1,0-0.2c0-0.1,0-0.1,0-0.2c0,0,0,0,0-0.1c0-0.1,0-0.1,0-0.2c0,0,0-0.1,0-0.1c0-0.1,0-0.1,0-0.2c0,0,0,0,0-0.1
			c0-0.1,0-0.2,0-0.2c0,0,0,0,0,0c0-0.1,0-0.1,0-0.2c0,0,0-0.1,0-0.1c0,0,0-0.1,0-0.2c0,0,0-0.1,0-0.1c0,0,0-0.1,0-0.1
			c0,0,0-0.1,0-0.1c0-0.1,0-0.1,0-0.2c0,0,0,0,0-0.1c0-0.1,0-0.2,0.1-0.2c0,0,0,0,0,0c0-0.1,0-0.1,0.1-0.2c0,0,0,0,0-0.1
			c0-0.1,0-0.1,0.1-0.2c0,0,0,0,0-0.1c0-0.1,0-0.1,0.1-0.2c0,0,0,0,0-0.1c0-0.1,0.1-0.1,0.1-0.2c0,0,0,0,0-0.1
			c0-0.1,0.1-0.1,0.1-0.2c0,0,0-0.1,0.1-0.1c0,0,0-0.1,0.1-0.1c0.1-0.1,0.1-0.2,0.2-0.3c0,0,0-0.1,0.1-0.1c0,0,0-0.1,0.1-0.1
			c0,0,0-0.1,0.1-0.1c0,0,0.1-0.1,0.1-0.1c0,0,0-0.1,0.1-0.1c0.1-0.1,0.1-0.2,0.2-0.3c0,0,0,0,0,0c0.1-0.1,0.1-0.1,0.2-0.2
			c0-0.1,0.1-0.1,0.1-0.2c0,0,0,0,0,0c0.1-0.1,0.1-0.1,0.2-0.2c0,0,0,0,0-0.1c0,0,0.1-0.1,0.1-0.1c0,0,0,0,0.1-0.1
			c0,0,0.1-0.1,0.1-0.1c0,0,0,0,0.1-0.1c0,0,0.1-0.1,0.1-0.1c0,0,0.1-0.1,0.1-0.1c0,0,0.1-0.1,0.1-0.1c0,0,0.1,0,0.1-0.1
			c0,0,0.1-0.1,0.1-0.1c0,0,0.1,0,0.1-0.1c0,0,0.1-0.1,0.1-0.1c0,0,0,0,0.1-0.1c0,0,0.1-0.1,0.1-0.1c0,0,0,0,0.1,0
			c0.1,0,0.1-0.1,0.2-0.1c0,0,0,0,0,0c0.1,0,0.1-0.1,0.2-0.1c0.1,0,0.1-0.1,0.2-0.1c0,0,0,0,0.1,0c0,0,0.1,0,0.1-0.1c0,0,0,0,0.1,0
			c0.1,0,0.1-0.1,0.2-0.1c0.1,0,0.1,0,0.2-0.1c0,0,0,0,0.1,0c0,0,0.1,0,0.1,0c0,0,0,0,0.1,0c0,0,0.1,0,0.1,0c0,0,0,0,0.1,0
			c0,0,0.1,0,0.1,0c0,0,0.1,0,0.1,0c0,0,0.1,0,0.1,0c0,0,0.1,0,0.1,0c0,0,0.1,0,0.1,0c0,0,0.1,0,0.1,0c0,0,0.1,0,0.1,0c0,0,0,0,0,0
			c0,0,0.1,0,0.1,0c0,0,0,0,0,0c0,0,0.1,0,0.1,0c0,0,0,0,0,0c0,0,0.1,0,0.1,0c0,0,0,0,0.1,0c0,0,0.1,0,0.1,0c0,0,0.1,0,0.1,0
			c0,0,0,0,0.1,0c0,0,0.1,0.1,0.1,0.1c0,0-1.9-1.1-1.9-1.1c0,0-0.1-0.1-0.1-0.1c0,0,0,0-0.1,0c-0.6-0.2-1.2-0.2-1.8,0
			c-0.6,0.2-1.1,0.5-1.6,0.9c0,0,0,0,0,0c0,0-0.1,0-0.1,0.1c-1.7,1.4-2.9,3.6-3.1,5.8c-0.1,0.8,0,1.6,0.4,2.3c0,0,0,0,0,0
			c0,0,0,0,0,0c0,0,0,0.1,0.1,0.1c0,0,0,0,0,0c0,0,0,0.1,0.1,0.1c0,0,0,0,0,0c0,0,0.1,0.1,0.1,0.1c0,0,0,0,0,0c0,0,0.1,0.1,0.1,0.1
			c0,0,0,0,0,0c0,0,0.1,0,0.1,0.1c0,0,0,0,0,0c0,0,0.1,0.1,0.1,0.1l1.9,1.1c0,0-0.1,0-0.1-0.1C361.2,198.1,361.2,198.1,361.1,198
			C361.1,198.1,361.1,198,361.1,198z"/>
		<g>
			<linearGradient id="SVGID_9_" gradientUnits="userSpaceOnUse" x1="360.1674" y1="193.3678" x2="368.0787" y2="193.3678">
				<stop  offset="0" style="stop-color:#00C4CC"/>
				<stop  offset="1" style="stop-color:#42138B"/>
			</linearGradient>
			<path fill="url(#SVGID_9_)" d="M364.1,188.8c-2.2,1.3-4,4.3-3.9,6.8c0,2.5,1.8,3.5,4,2.3c2.2-1.3,3.9-4.3,3.9-6.8
				C368.1,188.6,366.3,187.6,364.1,188.8z"/>
		</g>
	</g>
	<g>
		<path opacity="0.3" d="M340.7,209.8C340.6,209.8,340.6,209.8,340.7,209.8c-0.1-0.1-0.1-0.1-0.1-0.1c0,0,0,0,0,0
			c0,0-0.1-0.1-0.1-0.1c0,0,0,0,0,0c0,0,0-0.1-0.1-0.1c0,0,0,0,0,0c0,0,0-0.1-0.1-0.1c0,0,0,0,0,0c0,0-0.1-0.1-0.1-0.1
			c0-0.1-0.1-0.1-0.1-0.2c0,0,0,0,0,0c0,0,0-0.1-0.1-0.1c0,0,0,0,0,0c0,0,0-0.1,0-0.1c0,0,0-0.1,0-0.1c0,0,0-0.1,0-0.1
			c0,0,0-0.1,0-0.1c0,0,0-0.1,0-0.1c0,0,0-0.1,0-0.1c0,0,0-0.1,0-0.1c0,0,0-0.1,0-0.1c0,0,0-0.1,0-0.1c0,0,0-0.1,0-0.1
			c0,0,0-0.1,0-0.1c0,0,0,0,0-0.1c0-0.1,0-0.1,0-0.2c0-0.1,0-0.1,0-0.2c0,0,0,0,0-0.1c0,0,0-0.1,0-0.2c0,0,0-0.1,0-0.1
			c0-0.1,0-0.1,0-0.2c0,0,0,0,0-0.1c0-0.1,0-0.2,0-0.2c0,0,0,0,0,0c0-0.1,0-0.1,0-0.2c0,0,0,0,0-0.1c0,0,0-0.1,0-0.2
			c0,0,0-0.1,0-0.1c0,0,0-0.1,0-0.1c0,0,0-0.1,0-0.1c0-0.1,0-0.1,0-0.2c0,0,0,0,0-0.1c0-0.1,0-0.2,0.1-0.2c0,0,0,0,0,0
			c0-0.1,0-0.1,0.1-0.2c0,0,0,0,0-0.1c0-0.1,0-0.1,0.1-0.2c0,0,0-0.1,0-0.1c0-0.1,0-0.1,0.1-0.2c0,0,0,0,0-0.1
			c0-0.1,0.1-0.1,0.1-0.2c0,0,0,0,0-0.1c0-0.1,0.1-0.1,0.1-0.2c0,0,0-0.1,0.1-0.1c0,0,0-0.1,0.1-0.1c0.1-0.1,0.1-0.2,0.2-0.3
			c0,0,0-0.1,0.1-0.1c0,0,0-0.1,0.1-0.1c0,0,0-0.1,0.1-0.1c0,0,0.1-0.1,0.1-0.1c0,0,0,0,0.1-0.1c0.1-0.1,0.1-0.2,0.2-0.3
			c0,0,0,0,0,0c0.1-0.1,0.1-0.1,0.2-0.2c0-0.1,0.1-0.1,0.1-0.2c0,0,0,0,0,0c0.1-0.1,0.1-0.1,0.2-0.2c0,0,0,0,0-0.1
			c0,0,0.1-0.1,0.1-0.1c0,0,0,0,0.1-0.1c0,0,0.1-0.1,0.1-0.1c0,0,0.1-0.1,0.1-0.1c0,0,0.1-0.1,0.1-0.1c0,0,0.1-0.1,0.1-0.1
			c0,0,0.1-0.1,0.1-0.1c0,0,0.1,0,0.1-0.1c0,0,0.1-0.1,0.1-0.1c0,0,0.1,0,0.1-0.1c0,0,0.1-0.1,0.1-0.1c0,0,0.1,0,0.1-0.1
			c0,0,0.1-0.1,0.1-0.1c0,0,0,0,0.1,0c0.1,0,0.1-0.1,0.2-0.1c0,0,0,0,0,0c0.1,0,0.1-0.1,0.2-0.1c0.1,0,0.1-0.1,0.2-0.1
			c0,0,0,0,0.1,0c0,0,0.1,0,0.1-0.1c0,0,0,0,0.1,0c0.1,0,0.1-0.1,0.2-0.1c0.1,0,0.1,0,0.2-0.1c0,0,0,0,0.1,0c0,0,0.1,0,0.1,0
			c0,0,0,0,0.1,0c0,0,0.1,0,0.1,0c0,0,0,0,0.1,0c0,0,0.1,0,0.1,0c0,0,0.1,0,0.1,0c0,0,0.1,0,0.1,0c0,0,0.1,0,0.1,0c0,0,0.1,0,0.1,0
			c0,0,0.1,0,0.1,0c0,0,0.1,0,0.1,0c0,0,0,0,0,0c0,0,0.1,0,0.1,0c0,0,0,0,0,0c0,0,0.1,0,0.1,0c0,0,0,0,0,0c0,0,0.1,0,0.1,0
			c0,0,0,0,0.1,0c0,0,0.1,0,0.1,0c0,0,0.1,0,0.1,0c0,0,0,0,0,0c0,0,0.1,0,0.1,0.1l-1.9-1.1c0,0-0.1-0.1-0.1-0.1c0,0,0,0-0.1,0
			c-0.6-0.2-1.2-0.2-1.8,0c-0.6,0.2-1.1,0.5-1.6,0.9c0,0,0,0,0,0c0,0-0.1,0-0.1,0.1c-1.7,1.4-2.9,3.6-3.1,5.8
			c-0.1,0.8,0,1.6,0.4,2.3c0,0,0,0,0,0c0,0,0,0,0,0c0,0,0,0.1,0.1,0.1c0,0,0,0,0,0c0,0,0,0.1,0.1,0.1c0,0,0,0,0,0
			c0,0,0.1,0.1,0.1,0.1c0,0,0,0,0,0c0,0,0.1,0.1,0.1,0.1c0,0,0,0,0,0c0,0,0.1,0,0.1,0.1c0,0,0,0,0,0c0,0,0.1,0.1,0.1,0.1l1.9,1.1
			c0,0-0.1,0-0.1-0.1C340.8,209.9,340.8,209.9,340.7,209.8C340.7,209.9,340.7,209.8,340.7,209.8z"/>
		<g>
			<linearGradient id="SVGID_10_" gradientUnits="userSpaceOnUse" x1="339.7369" y1="205.1659" x2="347.648" y2="205.1659">
				<stop  offset="0" style="stop-color:#00C4CC"/>
				<stop  offset="1" style="stop-color:#42138B"/>
			</linearGradient>
			<path fill="url(#SVGID_10_)" d="M343.7,200.6c-2.2,1.3-3.9,4.3-3.9,6.8c0,2.5,1.8,3.5,4,2.3c2.2-1.3,4-4.3,3.9-6.8
				C347.6,200.4,345.9,199.4,343.7,200.6z"/>
		</g>
	</g>
	<path fill="#6C6C7A" d="M383.5,63.6L299.7,15c-0.6-0.3-1.2-0.3-1.7,0v0l0,0c0,0,0,0,0,0l-3.2,1.9l2.4,8.4v55.5c0,2,1.1,3.9,2.8,4.9
		l80.8,46.8l0.9,2.5l3.2-1.9v0c0.9-0.5,1.6-1.5,1.6-2.7V68.7C386.5,66.6,385.4,64.6,383.5,63.6z"/>
	<linearGradient id="SVGID_11_" gradientUnits="userSpaceOnUse" x1="293.8628" y1="76.0773" x2="383.2515" y2="76.0773">
		<stop  offset="0" style="stop-color:#00C4CC"/>
		<stop  offset="1" style="stop-color:#7D2AE8"/>
	</linearGradient>
	<path fill="url(#SVGID_11_)" d="M383.3,70.5v61.9c0,2.4-2.6,3.9-4.6,2.7l-81.9-47.4c-1.8-1-2.8-2.9-2.8-4.9V18.4
		c0-1.3,1.4-2.1,2.6-1.5l83.9,48.5C382.1,66.5,383.3,68.4,383.3,70.5z"/>
	<linearGradient id="SVGID_12_" gradientUnits="userSpaceOnUse" x1="295.8707" y1="75.9102" x2="380.9791" y2="75.9102">
		<stop  offset="0" style="stop-color:#00C4CC"/>
		<stop  offset="1" style="stop-color:#7D2AE8"/>
	</linearGradient>
	<polygon fill="url(#SVGID_12_)" points="381,73 381,128.1 295.9,78.8 295.9,23.8 	"/>
	<polygon fill="#E6E7E8" points="317.6,43.6 317.6,41.6 299.6,31.2 299.6,33.2 	"/>
	<polygon fill="#E6E7E8" points="317.6,47.5 317.6,45.5 299.6,35.1 299.6,37.1 	"/>
	<polygon fill="#E6E7E8" points="317.6,51.3 317.6,49.3 299.6,38.9 299.6,40.9 	"/>
	<g>
		<polygon fill="#E6E7E8" points="327.8,47.6 327.8,49.6 345.8,60 345.8,58 		"/>
		<polygon fill="#E6E7E8" points="327.8,53.4 345.8,63.9 345.8,61.9 327.8,51.4 		"/>
		<polygon fill="#E6E7E8" points="327.8,57.3 345.8,67.7 345.8,65.7 327.8,55.3 		"/>
		<polygon fill="#E6E7E8" points="327.8,67 345.8,77.4 345.8,75.4 327.8,65 		"/>
		<polygon fill="#E6E7E8" points="327.8,70.8 345.8,81.2 345.8,79.2 327.8,68.8 		"/>
		<polygon fill="#E6E7E8" points="327.8,74.7 345.8,85.1 345.8,83.1 327.8,72.7 		"/>
		<polygon fill="#E6E7E8" points="327.8,84.3 345.8,94.8 345.8,92.8 327.8,82.3 		"/>
		<polygon fill="#E6E7E8" points="327.8,88.2 345.8,98.6 345.8,96.6 327.8,86.2 		"/>
		<polygon fill="#E6E7E8" points="327.8,92 345.8,102.5 345.8,100.5 327.8,90 		"/>
	</g>
	<polygon fill="#E6E7E8" points="317.6,55.2 317.6,53.2 299.6,42.8 299.6,44.8 	"/>
	<polygon fill="#E6E7E8" points="359.2,89.1 352.9,85.5 352.9,106.3 359.2,110 	"/>
	<polygon fill="#E6E7E8" points="367.7,82.7 361.3,79 361.3,111.2 367.7,114.9 	"/>
	<polygon fill="#E6E7E8" points="376.1,76.3 369.7,72.6 369.7,116.1 376.1,119.8 	"/>
	<path fill="#E6E7E8" d="M310.3,69.3V57.6c-0.2-0.1-0.4-0.3-0.6-0.4c-5.5-3.2-10-0.6-10.1,5.7c0,6.4,4.5,14.1,10,17.3
		c5.5,3.2,10,0.6,10.1-5.7c0-0.1,0-0.2,0-0.3L310.3,69.3z"/>
	<g>
		<path fill="#E6E7E8" d="M328.4,181l-16.1-9.4c-1.7-1-3.9-1-5.6,0l-16.8,9.7c-1.2,0.7-1.8,1.9-1.8,3.2c0,1.3,0.7,2.5,1.8,3.2
			l15.2,8.8c1,0.6,2.2,0.9,3.4,0.9c1.2,0,2.3-0.3,3.3-0.9l16.7-9.6c1.1-0.6,1.7-1.7,1.7-2.9C330.1,182.7,329.4,181.6,328.4,181z
			 M327.3,185.1l-16.7,9.6c-1.4,0.8-3.2,0.8-4.6,0l-15.2-8.8c-0.5-0.3-0.8-0.8-0.8-1.4c0-0.6,0.3-1.1,0.8-1.4l16.8-9.7
			c0.6-0.3,1.2-0.5,1.8-0.5c0.6,0,1.2,0.2,1.8,0.5l16.1,9.4c0.4,0.3,0.7,0.7,0.7,1.2C328,184.4,327.8,184.9,327.3,185.1z"/>
		<path fill="#E6E7E8" d="M291.8,161.8c0-1.2-0.6-2.3-1.7-2.9l-16.1-9.4c-1.7-1-3.9-1-5.6,0l-16.8,9.7c-1.1,0.7-1.8,1.9-1.8,3.2
			c0,1.3,0.7,2.5,1.8,3.2l15.2,8.8c1,0.6,2.2,0.9,3.4,0.9c1.2,0,2.3-0.3,3.3-0.9l16.7-9.6C291.2,164.1,291.8,163,291.8,161.8z
			 M289.1,163l-16.7,9.6c-1.4,0.8-3.2,0.8-4.6,0l-15.2-8.8c-0.5-0.3-0.8-0.8-0.8-1.4c0-0.6,0.3-1.1,0.8-1.4l16.8-9.7
			c0.6-0.3,1.2-0.5,1.8-0.5c0.6,0,1.2,0.2,1.8,0.5l16.1,9.4c0.4,0.3,0.7,0.7,0.7,1.2C289.8,162.3,289.5,162.7,289.1,163z"/>
		<path fill="#E6E7E8" d="M253.6,139.6c0-1.2-0.6-2.3-1.7-3l-16.1-9.4c-1.7-1-3.9-1-5.6,0l-16.8,9.7c-1.2,0.7-1.8,1.9-1.8,3.2
			c0,1.3,0.7,2.5,1.8,3.2l15.2,8.8c1,0.6,2.2,0.9,3.4,0.9c1.2,0,2.3-0.3,3.3-0.9l16.7-9.6C252.9,142,253.6,140.9,253.6,139.6z
			 M250.8,140.8l-16.7,9.6c-1.4,0.8-3.2,0.8-4.6,0l-15.2-8.8c-0.5-0.3-0.8-0.8-0.8-1.4c0-0.6,0.3-1.1,0.8-1.4l16.8-9.7
			c0.6-0.3,1.2-0.5,1.8-0.5c0.6,0,1.2,0.2,1.8,0.5l16.1,9.4c0.4,0.2,0.7,0.7,0.7,1.2C251.5,140.1,251.3,140.6,250.8,140.8z"/>
	</g>
	<linearGradient id="SVGID_13_" gradientUnits="userSpaceOnUse" x1="110.3096" y1="52.1441" x2="195.4166" y2="52.1441">
		<stop  offset="0" style="stop-color:#7D2AE8"/>
		<stop  offset="1" style="stop-color:#00C4CC"/>
	</linearGradient>
	<polygon fill="url(#SVGID_13_)" points="110.3,49.2 110.3,104.3 195.4,55.1 195.4,0 	"/>
	<linearGradient id="SVGID_14_" gradientUnits="userSpaceOnUse" x1="0" y1="143.835" x2="85.108" y2="143.835">
		<stop  offset="0" style="stop-color:#7D2AE8"/>
		<stop  offset="1" style="stop-color:#00C4CC"/>
	</linearGradient>
	<polygon fill="url(#SVGID_14_)" points="0,140.9 0,196 85.1,146.7 85.1,91.7 	"/>
	<g>
		<path fill="#E6E7E8" d="M344.7,162.3c0-0.3-0.1-0.6-0.2-0.8c-0.1-0.2-0.1-0.3-0.2-0.5c-0.2-0.3-0.4-0.6-0.6-0.9
			c-0.4-0.4-0.9-0.8-1.4-1c-0.7-0.4-1.4-0.7-2.2-0.9c-0.9-0.2-1.8-0.4-2.7-0.4c-0.2,0-0.5,0-0.7,0c-0.2,0-0.5,0-0.7,0
			c-0.2,0-0.4,0.1-0.5,0.2c-0.1,0.1-0.2,0.2-0.2,0.3c0,0.1,0.1,0.3,0.2,0.3c0.4,0.2,0.8,0.1,1.2,0.1c1.5,0,3.2,0.3,4.5,1.1
			c1.1,0.6,1.8,1.5,1.8,2.4l0,0.3c0,0.1,0.1,0.3,0.2,0.3c0.2,0.1,0.4,0.1,0.6,0.1c0.2,0,0.4-0.1,0.6-0.2
			C344.6,162.7,344.7,162.5,344.7,162.3z"/>
		<path fill="#E6E7E8" d="M341.6,162.2c0-0.4-0.2-0.8-0.4-1.1c-0.3-0.3-0.6-0.6-1-0.8c-1-0.6-2.2-0.8-3.3-0.8c-0.4,0-0.8-0.1-1.1,0
			c-0.2,0.1-0.5,0.2-0.5,0.5c0,0.1,0.1,0.3,0.3,0.4c0.2,0.1,0.4,0.2,0.7,0.2l0.7,0c0.8,0,1.5,0.2,2.1,0.5c0.3,0.2,0.5,0.4,0.7,0.7
			c0.1,0.1,0.1,0.3,0.1,0.4c0,0.2-0.1,0.4,0,0.5c0,0.1,0.1,0.2,0.2,0.3c0.5,0.3,1.5,0.3,1.6-0.4
			C341.6,162.4,341.6,162.3,341.6,162.2z"/>
		<path fill="#E6E7E8" d="M337.7,161.7c-0.6-0.3-1.5-0.3-2,0c-0.6,0.3-0.6,0.9,0,1.2c0.6,0.3,1.5,0.3,2,0
			C338.3,162.5,338.3,162,337.7,161.7z"/>
	</g>
	<path opacity="0.2" fill="#2B3990" d="M180.2,270.1l-22.3-12.9c-0.7-0.4-1.5-0.4-2.1,0L133.5,270c-1.4,0.8-1.4,2.9,0,3.7l22.3,12.9
		c0.7,0.4,1.5,0.4,2.1,0l22.2-12.8C181.6,273,181.6,270.9,180.2,270.1z"/>
	<path opacity="0.2" fill="#2B3990" d="M106.3,225.7L84,212.8c-0.7-0.4-1.5-0.4-2.1,0l-22.2,12.8c-1.4,0.8-1.4,2.9,0,3.7L82,242.2
		c0.7,0.4,1.5,0.4,2.1,0l22.2-12.8C107.7,228.6,107.7,226.5,106.3,225.7z"/>
	<path opacity="0.2" fill="#2B3990" d="M152.5,198.8l-22.3-12.9c-0.7-0.4-1.5-0.4-2.1,0l-22.2,12.8c-1.4,0.8-1.4,2.8,0,3.7
		l22.3,12.9c0.7,0.4,1.5,0.4,2.1,0l22.2-12.8C153.9,201.7,153.9,199.6,152.5,198.8z"/>
	<path opacity="0.2" fill="#2B3990" d="M193.6,174.9L171.3,162c-0.7-0.4-1.5-0.4-2.1,0L147,174.8c-1.4,0.8-1.4,2.8,0,3.7l22.3,12.9
		c0.7,0.4,1.5,0.4,2.1,0l22.2-12.8C195,177.8,195,175.7,193.6,174.9z"/>
	<path opacity="0.2" fill="#2B3990" d="M226.7,242.6l-22.3-12.9c-0.7-0.4-1.5-0.4-2.1,0l-22.2,12.8c-1.4,0.8-1.4,2.8,0,3.7
		l22.3,12.9c0.7,0.4,1.5,0.4,2.1,0l22.2-12.8C228.1,245.4,228.1,243.4,226.7,242.6z"/>
	<path opacity="0.2" fill="#2B3990" d="M268.5,218.6l-22.3-12.9c-0.7-0.4-1.5-0.4-2.1,0l-22.2,12.8c-1.4,0.8-1.4,2.8,0,3.7
		l22.3,12.9c0.7,0.4,1.5,0.4,2.1,0l22.2-12.8C270,221.5,270,219.4,268.5,218.6z"/>
	<g>
		<g>
			<path fill="#894AEC" d="M180.7,164.4c0,0,2.4,0,3.5-0.7c1.1-0.8,3.8,2.4,1.2,4.1c-2.6,1.7-5.3,3.4-6.7,3.1
				c-1.4-0.2-2.2-0.5-2.3-0.8c-0.1-0.3-0.2-5.9-0.2-5.9L180.7,164.4z"/>
			<path fill="#894AEC" d="M181.7,160.1v6.4c0,0-3.6,1.6-6,0.7l-0.9-4.3L181.7,160.1z"/>
			<path fill="#894AEC" d="M190.9,168.1c0,0,2.4,0,3.5-0.7c1.1-0.8,3.8,2.4,1.2,4.1c-2.6,1.7-5.3,3.4-6.7,3.1
				c-1.4-0.2-2.2-0.5-2.3-0.8c-0.1-0.3-0.2-5.9-0.2-5.9L190.9,168.1z"/>
			<path fill="#F7CA82" d="M190.4,140.2c0,0,1-1.7,1.8-2.8c0.8-1,1.9-2.7,0.9-3.5c-1-0.8-2.9-1.8-3.7-1.8c-0.9,0.1-2.3,1.2-1.8,1.8
				c0.5,0.6-0.4,3.4-0.4,3.4L190.4,140.2z"/>
			<path fill="#5218AE" d="M156.4,121.9c0.9-1,2.4-1.4,3.7-1l2.8,0.8l7.6,3.6l5.3,2.8l0.4,16.9l0.5,8.2l-3.1,2.6
				c-3.7,3.5-15.2-2.6-15.2-2.6c-1.9-6.4-4.8-23.9-4.8-23.9C153.8,125.6,155.2,123.3,156.4,121.9z"/>
			<path fill="#894AEC" d="M175.5,148.8c0,0,8-1.7,12.9-2.1c1.8-0.2,3.3,1.2,3.4,3c0.2,4.4,0.5,13-0.2,19.6l-3,1.9
				c-1.3,0.8-3.1-0.1-3.2-1.7l-0.5-10.9c0-0.9-1.2,0.2-1.9,0.8c-2.2,1.9-7.6,4.1-10.9,2.9c0,0-9.8-3-12.1-9.4L175.5,148.8z"/>
			<linearGradient id="SVGID_15_" gradientUnits="userSpaceOnUse" x1="169.1815" y1="175.8928" x2="173.5015" y2="175.8928">
				<stop  offset="0" style="stop-color:#00C4CC"/>
				<stop  offset="1" style="stop-color:#7D2AE8"/>
			</linearGradient>
			<path fill="url(#SVGID_15_)" d="M170.7,164.4l2.8-1.4l-1.6,24.3c0,0.4-0.2,0.8-0.5,1c-0.4,0.3-0.7,0.5-1,0.5
				c-0.7,0.1-1.3-0.6-1.2-1.5L170.7,164.4z"/>
			<linearGradient id="SVGID_16_" gradientUnits="userSpaceOnUse" x1="149.0628" y1="164.7208" x2="153.5035" y2="164.7208">
				<stop  offset="0" style="stop-color:#00C4CC"/>
				<stop  offset="1" style="stop-color:#7D2AE8"/>
			</linearGradient>
			<path fill="url(#SVGID_16_)" d="M150.8,154.2l2.7-1.4l-1.8,22.4c0,0.4-0.2,0.8-0.5,1.1c-0.3,0.2-0.5,0.4-0.8,0.5
				c-0.8,0.2-1.4-0.6-1.4-1.6L150.8,154.2z"/>
			<linearGradient id="SVGID_17_" gradientUnits="userSpaceOnUse" x1="185.1548" y1="169.5723" x2="190.9297" y2="169.5723">
				<stop  offset="0" style="stop-color:#00C4CC"/>
				<stop  offset="1" style="stop-color:#7D2AE8"/>
			</linearGradient>
			<path fill="url(#SVGID_17_)" d="M187.7,159.1l3.2,19.5c0.1,0.4,0,0.9-0.3,1.2c-0.2,0.2-0.4,0.3-0.6,0.3c-0.4,0.1-0.9-0.3-1-0.8
				l-3.9-19.3L187.7,159.1z"/>
			<path fill="#F7CA82" d="M165.5,107.1c1.8-0.3,2.9-0.6,4.6-0.1c3,0.9,4.5,3.7,5.2,6.5c0.7,2.8,0.9,7-0.7,9.6
				c-1,1.6-3.3,1.3-4.9,0.9c-2-0.5-4.5-1.4-6.1-2.6c-2.2-1.7-3.4-5.4-3.5-8C160,111.1,162.7,107.6,165.5,107.1z"/>
			<path fill="#F7B378" d="M162.9,120.7c0.2,0.3,0.5,0.5,0.8,0.7c1.6,1.2,4.1,2,6.1,2.6c0.3,0.1,0.6,0.2,1,0.2l-0.2,1.1
				c-2.1,0.6-4.2,0.5-5.7,0.3c-1.1-0.1-2-1.1-2-2.2L162.9,120.7L162.9,120.7z"/>
			<path fill="#9F6FEC" d="M173,127.6c0,0,4.4-0.1,5.5,2.9c1.1,3.1,3.6,9.2,3.6,9.2s3.7-2.9,5.1-3.2c0,0,3.1,1.6,3.8,3.2
				c0,0-4.6,8-10.3,10.3c0,0-6.1-5.7-9.1-14C171.5,136.1,167.9,130,173,127.6z"/>
			<linearGradient id="SVGID_18_" gradientUnits="userSpaceOnUse" x1="149.7095" y1="147.5386" x2="171.6934" y2="147.5386">
				<stop  offset="0" style="stop-color:#00C4CC"/>
				<stop  offset="1" style="stop-color:#7D2AE8"/>
			</linearGradient>
			<path fill="url(#SVGID_18_)" d="M151.9,130.1c11.5,2.4,17.3,8.5,19.2,10.8c0.4,0.5,0.7,1.2,0.7,1.9V165
				c-15.4-2.6-22-11.6-22-11.6v-21.5C149.7,130.8,150.8,129.9,151.9,130.1z"/>
			<linearGradient id="SVGID_19_" gradientUnits="userSpaceOnUse" x1="171.6934" y1="160.6615" x2="189.0952" y2="160.6615">
				<stop  offset="0" style="stop-color:#00C4CC"/>
				<stop  offset="1" style="stop-color:#7D2AE8"/>
			</linearGradient>
			<path fill="url(#SVGID_19_)" d="M171.7,165c0,0,13.3-1.3,17.4-5.9c0,0,0.3-3.1-1-2.7c-1.3,0.4-7.3,4.1-16.4,5.1V165z"/>
			<path fill="#9F6FEC" d="M174.4,108.5l2-0.9c-4.3-2.2-8.8-1.5-11-0.9c-0.5,0.1-1,0.2-1.5,0.5c-2,1-4,3.9-3.8,6.2
				c0.1,2.7,1.3,6.3,3.5,8c1.2,0.9,3,1.6,4.7,2.2c0.5-0.2,1.1-2.7,1.1-2.7c-0.9-0.5-1.7-3.6-0.7-4.2c1-0.5,1.7,1.4,1.7,1.4
				c0.6-0.2,1.4-0.9,1-2c-0.2-0.4-0.2-0.8-0.2-1.1c0-0.7,0.5-1.2,1.2-1.3c0.3,0,0.6-0.1,0.9-0.1c3-0.1,4.9,0.1,4.9,0.1
				C177,110.9,174.4,108.5,174.4,108.5z"/>
		</g>
		<g>
			<path fill="#5218AE" d="M255.4,208.1c0,0,2.4,0,3.5-0.7c1.1-0.8,3.8,2.4,1.2,4.1c-2.6,1.7-5.3,3.4-6.7,3.1
				c-1.4-0.2-2.2-0.5-2.3-0.8c-0.1-0.3-0.2-5.9-0.2-5.9L255.4,208.1z"/>
			<path fill="#894AEC" d="M256.4,203.9v6.4c0,0-3.6,1.6-6,0.7l-0.9-4.3L256.4,203.9z"/>
			<path fill="#5218AE" d="M265.6,211.8c0,0,2.4,0,3.5-0.7c1.1-0.8,3.8,2.4,1.2,4.1c-2.6,1.7-5.3,3.4-6.7,3.1
				c-1.4-0.2-2.2-0.5-2.3-0.8c-0.1-0.3-0.2-5.9-0.2-5.9L265.6,211.8z"/>
			<path fill="#5218AE" d="M231.4,166c0.9-1,2.5-1.6,3.8-1.2l2.3,0.7l7.6,3.6l5.3,2.8l0.5,16.9l0.5,8.2l-3.1,2.6
				c-3.7,3.5-15.2-2.6-15.2-2.6c-1.9-6.4-4-23.7-4-23.7C229.3,169.5,230.2,167.3,231.4,166z"/>
			<linearGradient id="SVGID_20_" gradientUnits="userSpaceOnUse" x1="234.8257" y1="202.6839" x2="267.7093" y2="202.6839">
				<stop  offset="0" style="stop-color:#00C4CC"/>
				<stop  offset="1" style="stop-color:#7D2AE8"/>
			</linearGradient>
			<path fill="url(#SVGID_20_)" d="M250.2,192.5c0,0,9.1-1.9,14-2.3c1.8-0.2,3.3,1.2,3.4,3c0.2,4.4-0.7,13.2-1.3,19.8l-3,1.8
				c-1.3,0.8-3.1-0.1-3.2-1.7l-0.5-10.9c0-0.9-1.2,0.2-1.9,0.8c-2.2,1.9-7.6,4.1-10.9,2.9c0,0-9.8-3-12.1-9.4L250.2,192.5z"/>
			<linearGradient id="SVGID_21_" gradientUnits="userSpaceOnUse" x1="243.8852" y1="219.6156" x2="248.2056" y2="219.6156">
				<stop  offset="0" style="stop-color:#00C4CC"/>
				<stop  offset="1" style="stop-color:#7D2AE8"/>
			</linearGradient>
			<path fill="url(#SVGID_21_)" d="M245.4,208.1l2.8-1.4l-1.6,24.3c0,0.4-0.2,0.8-0.5,1c-0.4,0.3-0.7,0.5-1,0.5
				c-0.7,0.1-1.3-0.6-1.2-1.5L245.4,208.1z"/>
			<linearGradient id="SVGID_22_" gradientUnits="userSpaceOnUse" x1="223.7672" y1="208.4438" x2="228.2076" y2="208.4438">
				<stop  offset="0" style="stop-color:#00C4CC"/>
				<stop  offset="1" style="stop-color:#7D2AE8"/>
			</linearGradient>
			<path fill="url(#SVGID_22_)" d="M225.5,197.9l2.7-1.4l-1.8,22.4c0,0.4-0.2,0.8-0.5,1c-0.3,0.2-0.5,0.4-0.8,0.5
				c-0.8,0.2-1.4-0.6-1.4-1.6L225.5,197.9z"/>
			<linearGradient id="SVGID_23_" gradientUnits="userSpaceOnUse" x1="259.8589" y1="213.2969" x2="265.6334" y2="213.2969">
				<stop  offset="0" style="stop-color:#00C4CC"/>
				<stop  offset="1" style="stop-color:#7D2AE8"/>
			</linearGradient>
			<path fill="url(#SVGID_23_)" d="M262.4,202.8l3.2,19.5c0.1,0.4,0,0.9-0.3,1.2c-0.2,0.2-0.4,0.3-0.6,0.3c-0.4,0.1-0.9-0.3-1-0.8
				l-3.9-19.3L262.4,202.8z"/>
			<path fill="#F7CA82" d="M240.2,150.9c1.8-0.3,2.9-0.6,4.6-0.1c3,0.9,4.5,3.7,5.2,6.5c0.7,2.8,0.9,7-0.7,9.6
				c-1,1.6-3.3,1.3-4.9,0.9c-2-0.5-4.5-1.4-6.1-2.6c-2.2-1.7-3.4-5.4-3.5-8C234.7,154.8,237.4,151.3,240.2,150.9z"/>
			<path fill="#F7B378" d="M244.5,167.7c-2-0.5-4.5-1.4-6.1-2.6c-0.3-0.2-0.5-0.4-0.8-0.7h0v2.7c0.5,1,1.8,1.5,2.9,1.6
				c1.5,0.2,2.7,0.8,4.7,0.3l0.2-1.1C245.1,167.9,244.8,167.8,244.5,167.7z"/>
			<linearGradient id="SVGID_24_" gradientUnits="userSpaceOnUse" x1="224.4146" y1="191.2625" x2="246.398" y2="191.2625">
				<stop  offset="0" style="stop-color:#00C4CC"/>
				<stop  offset="1" style="stop-color:#7D2AE8"/>
			</linearGradient>
			<path fill="url(#SVGID_24_)" d="M226.6,173.9c11.5,2.4,17.3,8.5,19.2,10.8c0.4,0.5,0.7,1.2,0.7,1.9v22.1
				c-15.4-2.6-22-11.6-22-11.6v-21.5C224.4,174.5,225.5,173.6,226.6,173.9z"/>
			<linearGradient id="SVGID_25_" gradientUnits="userSpaceOnUse" x1="246.398" y1="204.3859" x2="263.7994" y2="204.3859">
				<stop  offset="0" style="stop-color:#00C4CC"/>
				<stop  offset="1" style="stop-color:#7D2AE8"/>
			</linearGradient>
			<path fill="url(#SVGID_25_)" d="M246.4,208.7c0,0,13.3-1.3,17.4-5.9c0,0,0.3-3.1-1-2.7c-1.3,0.4-7.3,4.1-16.4,5.1V208.7z"/>
			<path fill="#E6E7E8" d="M237.5,165l-0.6,1.8c0,0,3.5,4.9,9.4,2.8l-0.8-1.1C245.4,168.5,239.9,168.6,237.5,165z"/>
			<path fill="#F7CA82" d="M264.8,188.1c0,0,1.2-0.3,1.9-0.2c0.7,0,1.1,0.9,1.7,1.2c0.6,0.3,1.5,1.4,1.5,2.6c0,1.2-0.5,2.5-1.2,2.5
				c-0.7,0-0.8,0.1-1-0.4c-0.2-0.5-1.3-2.2-1.3-2.2L264.8,188.1z"/>
			<path fill="#894AEC" d="M265.5,187.4c-1.4,0.4-9.1,0.9-9.1,0.9s-0.9-9.8-2-12.8c-1.1-3.1-4-3.8-4-3.8c-5.1,2.5-2.4,8.9-2.4,8.9
				c2,5.5,2.9,10.1,3.4,12.5c0.2,1.1,1.2,1.8,2.3,1.6c6.8-1.1,13.2-2.7,13.2-2.7C266.8,189.3,265.5,187.4,265.5,187.4z"/>
			<path fill="#9F6FEC" d="M249.9,152.1c-4.2-3.5-10-1.6-10-1.6v0c-0.5,0.1-0.9,0.2-1.3,0.4c-2,1-4,3.9-3.8,6.2
				c0.1,2.7,1.3,6.3,3.5,8c1.2,0.9,3,1.6,4.7,2.2c0.5-0.2,1.1-2.7,1.1-2.7c-0.9-0.5-1.7-3.6-0.7-4.2c1-0.5,1.7,1.4,1.7,1.4
				c0.6-0.2,1.4-0.9,1-2c-0.5-1.1,0-2.3,0-2.3c4.2-0.1,4.7,1.4,4.7,1.4C252.6,154.9,249.9,152.1,249.9,152.1z"/>
		</g>
		<g>
			<linearGradient id="SVGID_26_" gradientUnits="userSpaceOnUse" x1="134.5997" y1="191.1409" x2="144.8585" y2="191.1409">
				<stop  offset="0" style="stop-color:#00C4CC"/>
				<stop  offset="1" style="stop-color:#7D2AE8"/>
			</linearGradient>
			<path fill="url(#SVGID_26_)" d="M139.1,188.3c0,0,2.4,0,3.5-0.7c1.1-0.8,3.8,2.4,1.2,4.1c-2.6,1.7-5.3,3.4-6.7,3.1
				c-1.4-0.2-2.2-0.5-2.3-0.8c-0.1-0.3-0.2-5.9-0.2-5.9L139.1,188.3z"/>
			<path fill="#894AEC" d="M140.1,184.1v6.4c0,0-3.6,1.6-6,0.7l-0.9-4.3L140.1,184.1z"/>
			<linearGradient id="SVGID_27_" gradientUnits="userSpaceOnUse" x1="144.8584" y1="194.821" x2="155.117" y2="194.821">
				<stop  offset="0" style="stop-color:#00C4CC"/>
				<stop  offset="1" style="stop-color:#7D2AE8"/>
			</linearGradient>
			<path fill="url(#SVGID_27_)" d="M149.3,192c0,0,2.4,0,3.5-0.7c1.1-0.8,3.8,2.4,1.2,4.1c-2.6,1.7-5.3,3.4-6.7,3.1
				c-1.4-0.2-2.2-0.5-2.3-0.8c-0.1-0.3-0.2-5.9-0.2-5.9L149.3,192z"/>
			<path fill="#5218AE" d="M114.8,145.8c0.9-1,2.4-1.4,3.7-1l2.8,0.8l7.6,3.6l5.3,2.8l0.5,16.9l0.5,8.2l-3.1,2.6
				c-3.7,3.5-15.2-2.6-15.2-2.6c-1.9-6.4-4.8-24-4.8-24C112.2,149.5,113.6,147.2,114.8,145.8z"/>
			<path fill="#894AEC" d="M133.9,172.7c0,0,8-1.7,12.9-2.1c1.8-0.2,3.3,1.2,3.4,3c0.2,4.4,0.5,13-0.2,19.6l-3,1.9
				c-1.3,0.8-3.1-0.1-3.2-1.7l-0.5-10.9c0-0.9-1.2,0.2-1.9,0.8c-2.2,1.9-7.6,4.1-10.9,2.9c0,0-9.8-3-12.1-9.4L133.9,172.7z"/>
			<linearGradient id="SVGID_28_" gradientUnits="userSpaceOnUse" x1="127.5833" y1="199.809" x2="131.9034" y2="199.809">
				<stop  offset="0" style="stop-color:#00C4CC"/>
				<stop  offset="1" style="stop-color:#7D2AE8"/>
			</linearGradient>
			<path fill="url(#SVGID_28_)" d="M129.1,188.3l2.8-1.4l-1.6,24.3c0,0.4-0.2,0.8-0.5,1c-0.4,0.3-0.7,0.5-1,0.5
				c-0.7,0.1-1.3-0.6-1.2-1.5L129.1,188.3z"/>
			<linearGradient id="SVGID_29_" gradientUnits="userSpaceOnUse" x1="107.4641" y1="188.6378" x2="111.9058" y2="188.6378">
				<stop  offset="0" style="stop-color:#00C4CC"/>
				<stop  offset="1" style="stop-color:#7D2AE8"/>
			</linearGradient>
			<path fill="url(#SVGID_29_)" d="M109.2,178.1l2.7-1.4l-1.8,22.4c0,0.4-0.2,0.8-0.5,1.1c-0.3,0.2-0.5,0.4-0.8,0.5
				c-0.8,0.2-1.4-0.6-1.4-1.6L109.2,178.1z"/>
			<linearGradient id="SVGID_30_" gradientUnits="userSpaceOnUse" x1="143.5567" y1="193.4897" x2="149.3319" y2="193.4897">
				<stop  offset="0" style="stop-color:#00C4CC"/>
				<stop  offset="1" style="stop-color:#7D2AE8"/>
			</linearGradient>
			<path fill="url(#SVGID_30_)" d="M146.1,183l3.2,19.5c0.1,0.4,0,0.9-0.3,1.2c-0.2,0.2-0.4,0.3-0.6,0.3c-0.4,0.1-0.9-0.3-1-0.8
				l-3.9-19.3L146.1,183z"/>
			<path fill="#F7CA82" d="M123.9,131.1c1.8-0.3,2.9-0.6,4.6-0.1c3,0.9,4.5,3.7,5.3,6.5c0.7,2.8,0.9,7-0.7,9.6
				c-1,1.6-3.3,1.3-4.9,0.9c-2-0.5-4.5-1.4-6.1-2.6c-2.2-1.7-3.4-5.4-3.5-8C118.4,135,121.1,131.5,123.9,131.1z"/>
			<path fill="#F7B378" d="M121.3,144.7c0.2,0.3,0.5,0.5,0.8,0.7c1.6,1.2,4.1,2,6.1,2.6c0.3,0.1,0.6,0.2,1,0.2l-0.2,1.1
				c-2.1,0.6-3.2,0.1-4.6-0.1c-1.1-0.1-3-0.7-3-1.8L121.3,144.7L121.3,144.7z"/>
			<linearGradient id="SVGID_31_" gradientUnits="userSpaceOnUse" x1="108.1119" y1="171.4557" x2="130.0957" y2="171.4557">
				<stop  offset="0" style="stop-color:#00C4CC"/>
				<stop  offset="1" style="stop-color:#7D2AE8"/>
			</linearGradient>
			<path fill="url(#SVGID_31_)" d="M110.3,154.1c11.5,2.4,17.3,8.5,19.2,10.8c0.4,0.5,0.7,1.2,0.7,1.9v22.1
				c-15.4-2.6-22-11.6-22-11.6v-21.5C108.1,154.7,109.2,153.8,110.3,154.1z"/>
			<linearGradient id="SVGID_32_" gradientUnits="userSpaceOnUse" x1="130.0957" y1="184.5785" x2="147.4968" y2="184.5785">
				<stop  offset="0" style="stop-color:#00C4CC"/>
				<stop  offset="1" style="stop-color:#7D2AE8"/>
			</linearGradient>
			<path fill="url(#SVGID_32_)" d="M130.1,188.9c0,0,13.3-1.3,17.4-5.9c0,0,0.3-3.1-1-2.7c-1.3,0.4-7.3,4.1-16.4,5.1V188.9z"/>
			<path fill="#F7CA82" d="M148.1,167.5c0,0,1.2-0.3,1.9-0.2c0.7,0,1.1,0.9,1.7,1.2c0.6,0.3,1.5,1.4,1.5,2.6c0,1.2-0.5,2.5-1.2,2.5
				c-0.6,0-0.8,0.1-1-0.4c-0.2-0.5-1.3-2.2-1.3-2.2L148.1,167.5z"/>
			<path fill="#E6E7E8" d="M147.4,167.2l1.3-0.3c0,0,1.3,2.4,1.2,4.3l-1.2,0.3L147.4,167.2z"/>
			<path fill="#9F6FEC" d="M147.8,166.9c-1.4,0.4-9.1,0.9-9.1,0.9s-0.9-9.8-2-12.8c-1.1-3.1-4-3.8-4-3.8c-5.1,2.5-2.4,8.9-2.4,8.9
				c2,5.5,2.9,10.1,3.4,12.5c0.2,1.1,1.2,1.8,2.3,1.6c6.8-1.1,13.2-2.7,13.2-2.7C149.1,168.8,147.8,166.9,147.8,166.9z"/>
			<path fill="#9F6FEC" d="M133.6,137c0,0,5.1-5.4,0-6.9c-5.1-1.5-10-1.4-13.6,0.4c-3.7,1.8-3.2,7.2-2.6,8.5c0.7,1.3,2.5,4.5,4.2,6
				c0.1,0.1,0.1,0.1,0.2,0.1c0.1,0.1,0.2,0.1,0.3,0.2c1.2,0.9,3,1.6,4.7,2.2c0.5-0.2,1.1-2.7,1.1-2.7c-0.9-0.5-1.7-3.6-0.7-4.2
				c1-0.5,1.7,1.4,1.7,1.4c0.6-0.2,1.4-0.9,1-2c-0.5-1.1,0-2.3,0-2.3C131.6,137.7,133.1,137.3,133.6,137z"/>
			<path fill="#E6E7E8" d="M121.3,145.2l-0.8,1.8c0,0,3,4.9,9.1,2.5l-0.5-1.1C129.1,148.4,123.8,148.8,121.3,145.2z"/>
		</g>
		<g>
			<path fill="#5218AE" d="M213.8,232c0,0,2.4,0,3.5-0.7c1.1-0.8,3.8,2.4,1.2,4.1c-2.6,1.7-5.3,3.4-6.7,3.1
				c-1.4-0.2-2.2-0.5-2.3-0.8c-0.1-0.3-0.2-5.9-0.2-5.9L213.8,232z"/>
			<path fill="#894AEC" d="M214.8,227.8v6.4c0,0-3.6,1.6-6,0.7l-0.9-4.3L214.8,227.8z"/>
			<path fill="#5218AE" d="M224,235.7c0,0,2.4,0,3.5-0.7c1.1-0.8,3.8,2.4,1.2,4.1c-2.6,1.7-5.3,3.4-6.7,3.1
				c-1.4-0.2-2.2-0.5-2.3-0.8c-0.1-0.3-0.2-5.9-0.2-5.9L224,235.7z"/>
			<path fill="#F7CA82" d="M223.5,207.8c0,0,1-1.7,1.8-2.8c0.8-1,1.9-2.7,0.9-3.5c-1-0.8-2.9-1.8-3.7-1.8c-0.9,0.1-2.3,1.2-1.8,1.8
				c0.5,0.6-0.4,3.4-0.4,3.4L223.5,207.8z"/>
			<path fill="#5218AE" d="M189.5,189.5c0.9-1,2.4-1.4,3.7-1l2.8,0.8l7.6,3.6l5.3,2.8l0.5,16.9l0.5,8.2l-3.1,2.6
				c-3.7,3.5-15.2-2.6-15.2-2.6c-1.9-6.4-4.8-23.9-4.8-23.9C186.9,193.2,188.3,190.9,189.5,189.5z"/>
			<path fill="#894AEC" d="M208.6,216.4c0,0,8-1.7,12.9-2.1c1.8-0.2,3.3,1.2,3.4,3c0.2,4.4,0.5,13-0.2,19.6l-3,1.9
				c-1.3,0.8-3.1-0.1-3.2-1.7l-0.5-10.9c0-0.9-1.2,0.2-1.9,0.8c-2.2,1.9-7.6,4.1-10.9,2.9c0,0-9.8-3-12.1-9.4L208.6,216.4z"/>
			<linearGradient id="SVGID_33_" gradientUnits="userSpaceOnUse" x1="202.2876" y1="243.5323" x2="206.607" y2="243.5323">
				<stop  offset="0" style="stop-color:#00C4CC"/>
				<stop  offset="1" style="stop-color:#7D2AE8"/>
			</linearGradient>
			<path fill="url(#SVGID_33_)" d="M203.8,232l2.8-1.4l-1.6,24.3c0,0.4-0.2,0.8-0.5,1c-0.4,0.3-0.7,0.5-1,0.5
				c-0.7,0.1-1.3-0.6-1.2-1.5L203.8,232z"/>
			<linearGradient id="SVGID_34_" gradientUnits="userSpaceOnUse" x1="182.1688" y1="232.3608" x2="186.6099" y2="232.3608">
				<stop  offset="0" style="stop-color:#00C4CC"/>
				<stop  offset="1" style="stop-color:#7D2AE8"/>
			</linearGradient>
			<path fill="url(#SVGID_34_)" d="M183.9,221.8l2.7-1.4l-1.8,22.4c0,0.4-0.2,0.8-0.5,1.1c-0.3,0.2-0.5,0.4-0.8,0.5
				c-0.8,0.2-1.4-0.6-1.4-1.6L183.9,221.8z"/>
			<linearGradient id="SVGID_35_" gradientUnits="userSpaceOnUse" x1="218.2593" y1="237.2126" x2="224.0356" y2="237.2126">
				<stop  offset="0" style="stop-color:#00C4CC"/>
				<stop  offset="1" style="stop-color:#7D2AE8"/>
			</linearGradient>
			<path fill="url(#SVGID_35_)" d="M220.8,226.7l3.2,19.5c0.1,0.4,0,0.9-0.3,1.2c-0.2,0.2-0.4,0.3-0.6,0.3c-0.4,0.1-0.9-0.3-1-0.8
				l-3.9-19.3L220.8,226.7z"/>
			<path fill="#F7CA82" d="M198.6,174.8c1.8-0.3,2.9-0.6,4.6-0.1c3,0.9,4.5,3.7,5.3,6.5c0.7,2.8,0.9,7-0.7,9.6
				c-1,1.6-3.3,1.3-4.9,0.9c-1.9-0.5-4.5-1.4-6.1-2.6c-2.2-1.7-3.4-5.4-3.5-8C193.1,178.8,195.8,175.2,198.6,174.8z"/>
			<path fill="#F7B378" d="M196,188.4c0.2,0.3,0.5,0.5,0.8,0.7c1.6,1.2,4.1,2,6.1,2.6c0.3,0.1,0.6,0.2,1,0.2l-0.2,1.1
				c-2.1,0.6-4.2,0.5-5.7,0.3c-1.1-0.1-2-1.1-2-2.2L196,188.4L196,188.4z"/>
			<path fill="#9F6FEC" d="M206.1,195.2c0,0,4.4-0.1,5.5,2.9c1.1,3.1,3.6,9.2,3.6,9.2s3.7-2.9,5.1-3.2c0,0,3.1,1.6,3.8,3.2
				c0,0-4.6,8-10.3,10.4c0,0-6.1-5.7-9.1-14C204.6,203.7,201,197.7,206.1,195.2z"/>
			<linearGradient id="SVGID_36_" gradientUnits="userSpaceOnUse" x1="182.8155" y1="215.1788" x2="204.7994" y2="215.1788">
				<stop  offset="0" style="stop-color:#00C4CC"/>
				<stop  offset="1" style="stop-color:#7D2AE8"/>
			</linearGradient>
			<path fill="url(#SVGID_36_)" d="M185,197.8c11.5,2.4,17.3,8.5,19.2,10.8c0.4,0.5,0.7,1.2,0.7,1.9v22.1c-15.4-2.6-22-11.6-22-11.6
				v-21.5C182.8,198.4,183.9,197.6,185,197.8z"/>
			<linearGradient id="SVGID_37_" gradientUnits="userSpaceOnUse" x1="204.7994" y1="228.3014" x2="222.2024" y2="228.3014">
				<stop  offset="0" style="stop-color:#00C4CC"/>
				<stop  offset="1" style="stop-color:#7D2AE8"/>
			</linearGradient>
			<path fill="url(#SVGID_37_)" d="M204.8,232.6c0,0,13.3-1.3,17.4-5.9c0,0,0.3-3.1-1-2.7c-1.3,0.4-7.3,4.1-16.4,5.1V232.6z"/>
			<path fill="#9F6FEC" d="M208.3,180.7c0,0,3.3-2.8,1-4.4c-0.7-0.5-1.4-0.5-2-1.2c-0.6-0.7-1.2-1.5-2.1-2c-0.8-0.4-1.5,0.4-2.2,0.6
				c-1.4,0.4-2.4-1.2-3.8-0.9c-0.5,0.1-0.8,0.5-1.2,0.7c-1,0.6-3.7,0.1-3.6,1.9c0.1,1-0.4,1.9-1.2,2.4c-0.8,0.5-1.4,1.4-1.2,2.4
				c0.1,0.4,0.4,0.7,0.6,1.1c0.2,0.5,0.3,1,0.3,1.5c0.1,1.2,0.4,2.1,1.1,3.1c0.8,1.1,1.8,2.2,2.8,3c1.2,0.9,3,1.6,4.7,2.2
				c0.5-0.2,1.1-2.7,1.1-2.7c-0.9-0.5-1.7-3.6-0.7-4.2c1-0.5,1.7,1.4,1.7,1.4c0.6-0.2,1.4-0.9,1-2c-0.5-1.1,0-2.3,0-2.3
				C206.3,181.4,207.8,181,208.3,180.7z"/>
		</g>
		<g>
			<path fill="#5218AE" d="M92,215.9c0,0,2.4,0,3.5-0.7c1.1-0.8,3.8,2.4,1.2,4.1c-2.6,1.7-5.3,3.4-6.7,3.1c-1.4-0.2-2.2-0.5-2.3-0.8
				c-0.1-0.3-0.2-5.9-0.2-5.9L92,215.9z"/>
			<path fill="#894AEC" d="M93,211.6v6.4c0,0-3.6,1.6-6,0.7l-0.9-4.3L93,211.6z"/>
			<path fill="#5218AE" d="M102.3,219.6c0,0,2.4,0,3.5-0.7c1.1-0.8,3.8,2.4,1.2,4.1c-2.6,1.7-5.3,3.4-6.7,3.1
				c-1.4-0.2-2.2-0.5-2.3-0.8c-0.1-0.3-0.2-5.9-0.2-5.9L102.3,219.6z"/>
			<path fill="#F7CA82" d="M101.7,191.7c0,0,1-1.7,1.8-2.8c0.8-1,1.9-2.7,0.9-3.5c-1-0.8-2.9-1.8-3.7-1.8c-0.9,0.1-2.3,1.2-1.8,1.8
				c0.5,0.6-0.4,3.4-0.4,3.4L101.7,191.7z"/>
			<path fill="#5218AE" d="M67.7,173.4c0.9-1,2.4-1.4,3.7-1l2.8,0.8l7.6,3.5l5.3,2.8l0.5,16.9l0.5,8.2l-3.1,2.6
				c-3.7,3.5-15.2-2.6-15.2-2.6c-1.9-6.4-4.8-23.9-4.8-23.9C65.2,177.1,66.5,174.7,67.7,173.4z"/>
			<path fill="#894AEC" d="M86.8,200.3c0,0,8-1.7,12.9-2.1c1.8-0.2,3.3,1.2,3.4,3c0.2,4.4,0.5,13-0.2,19.6l-3,1.8
				c-1.3,0.8-3.1-0.1-3.2-1.7L96.3,210c0-0.9-1.2,0.2-1.9,0.8c-2.2,1.9-7.6,4.1-10.9,2.9c0,0-9.8-3-12.1-9.4L86.8,200.3z"/>
			<linearGradient id="SVGID_38_" gradientUnits="userSpaceOnUse" x1="80.5044" y1="227.3782" x2="84.8248" y2="227.3782">
				<stop  offset="0" style="stop-color:#00C4CC"/>
				<stop  offset="1" style="stop-color:#7D2AE8"/>
			</linearGradient>
			<path fill="url(#SVGID_38_)" d="M82.1,215.9l2.8-1.4l-1.6,24.3c0,0.4-0.2,0.8-0.5,1c-0.4,0.3-0.7,0.5-1,0.5
				c-0.7,0.1-1.3-0.6-1.2-1.5L82.1,215.9z"/>
			<linearGradient id="SVGID_39_" gradientUnits="userSpaceOnUse" x1="60.3865" y1="216.2051" x2="64.8277" y2="216.2051">
				<stop  offset="0" style="stop-color:#00C4CC"/>
				<stop  offset="1" style="stop-color:#7D2AE8"/>
			</linearGradient>
			<path fill="url(#SVGID_39_)" d="M62.1,205.7l2.7-1.4L63,226.6c0,0.4-0.2,0.8-0.5,1.1c-0.3,0.2-0.5,0.4-0.8,0.5
				c-0.8,0.2-1.4-0.6-1.4-1.6L62.1,205.7z"/>
			<linearGradient id="SVGID_40_" gradientUnits="userSpaceOnUse" x1="96.4776" y1="221.058" x2="102.2533" y2="221.058">
				<stop  offset="0" style="stop-color:#00C4CC"/>
				<stop  offset="1" style="stop-color:#7D2AE8"/>
			</linearGradient>
			<path fill="url(#SVGID_40_)" d="M99,210.5l3.2,19.5c0.1,0.4,0,0.9-0.3,1.2c-0.2,0.2-0.4,0.3-0.6,0.3c-0.4,0.1-0.9-0.3-1-0.8
				l-3.9-19.3L99,210.5z"/>
			<path fill="#F7CA82" d="M76.8,158.6c1.8-0.3,2.9-0.6,4.6-0.1c3,0.9,4.5,3.7,5.2,6.5c0.7,2.8,0.9,7-0.7,9.6
				c-1,1.6-3.3,1.3-4.9,0.9c-1.9-0.5-4.5-1.4-6.1-2.6c-2.2-1.7-3.4-5.4-3.5-8C71.3,162.6,74,159.1,76.8,158.6z"/>
			<path fill="#9F6FEC" d="M75.3,158.7c1.6-0.8,4.4-0.7,6.1-0.2c2.8,0.8,4.3,3.4,5.1,6c-0.6,0.3-2,0.7-3.8,0.7c0,0-0.5,1.2,0,2.3
				c0.5,1.1-0.4,1.8-1,2c0,0-0.7-1.9-1.7-1.4c-1,0.5-0.3,3.6,0.7,4.2c0,0-0.7,2.5-1.1,2.7c-1.6-0.5-3.4-1.2-4.7-2.2
				c-2.2-1.7-3.4-5.4-3.5-8C71.3,162.6,73.3,159.7,75.3,158.7z"/>
			<path fill="#F7B378" d="M74.2,172.2c0.2,0.3,0.5,0.5,0.8,0.7c1.6,1.2,4.1,2,6.1,2.6c0.3,0.1,0.6,0.2,1,0.2l-0.2,1.1
				c-2.1,0.6-4.2,0.5-5.7,0.3c-1.1-0.1-2-1.1-2-2.2L74.2,172.2L74.2,172.2z"/>
			<path fill="#9F6FEC" d="M84.3,179.1c0,0,4.4-0.1,5.5,2.9c1.1,3.1,3.6,9.2,3.6,9.2s3.7-2.9,5.1-3.3c0,0,3.1,1.6,3.8,3.3
				c0,0-4.6,8-10.3,10.4c0,0-6.1-5.7-9.1-14C82.9,187.6,79.2,181.5,84.3,179.1z"/>
			<linearGradient id="SVGID_41_" gradientUnits="userSpaceOnUse" x1="61.0328" y1="199.0241" x2="83.0166" y2="199.0241">
				<stop  offset="0" style="stop-color:#00C4CC"/>
				<stop  offset="1" style="stop-color:#7D2AE8"/>
			</linearGradient>
			<path fill="url(#SVGID_41_)" d="M63.2,181.6c11.5,2.4,17.3,8.5,19.2,10.8c0.4,0.5,0.7,1.2,0.7,1.9v22.1
				c-15.4-2.6-22-11.6-22-11.6v-21.5C61,182.2,62.1,181.4,63.2,181.6z"/>
			<linearGradient id="SVGID_42_" gradientUnits="userSpaceOnUse" x1="83.0166" y1="212.1469" x2="100.4191" y2="212.1469">
				<stop  offset="0" style="stop-color:#00C4CC"/>
				<stop  offset="1" style="stop-color:#7D2AE8"/>
			</linearGradient>
			<path fill="url(#SVGID_42_)" d="M83,216.5c0,0,13.3-1.3,17.4-5.9c0,0,0.3-3.1-1-2.7c-1.3,0.4-7.3,4.1-16.4,5.1V216.5z"/>
		</g>
		<g>
			<path fill="#F7CA82" d="M175.5,238.7c0,0,1.2-0.3,1.9-0.2c0.7,0,1.1,0.9,1.7,1.2c0.6,0.3,1.5,1.4,1.5,2.6c0,1.2-0.5,2.5-1.2,2.5
				c-0.6,0-0.8,0.1-1-0.4c-0.2-0.5-1.3-2.2-1.3-2.2L175.5,238.7z"/>
			<linearGradient id="SVGID_43_" gradientUnits="userSpaceOnUse" x1="162.2256" y1="262.4352" x2="172.4839" y2="262.4352">
				<stop  offset="0" style="stop-color:#00C4CC"/>
				<stop  offset="1" style="stop-color:#7D2AE8"/>
			</linearGradient>
			<path fill="url(#SVGID_43_)" d="M166.7,259.6c0,0,2.4,0,3.5-0.7c1.1-0.8,3.8,2.4,1.2,4.1c-2.6,1.7-5.3,3.4-6.7,3.1
				c-1.4-0.2-2.2-0.5-2.3-0.8c-0.1-0.3-0.2-5.9-0.2-5.9L166.7,259.6z"/>
			<path fill="#894AEC" d="M167.7,255.4v6.4c0,0-3.6,1.6-6,0.7l-0.9-4.3L167.7,255.4z"/>
			<linearGradient id="SVGID_44_" gradientUnits="userSpaceOnUse" x1="172.4834" y1="266.1137" x2="182.7429" y2="266.1137">
				<stop  offset="0" style="stop-color:#00C4CC"/>
				<stop  offset="1" style="stop-color:#7D2AE8"/>
			</linearGradient>
			<path fill="url(#SVGID_44_)" d="M177,263.3c0,0,2.4,0,3.5-0.7c1.1-0.8,3.8,2.4,1.2,4.1c-2.6,1.7-5.3,3.4-6.7,3.1
				c-1.4-0.2-2.2-0.5-2.3-0.8c-0.1-0.3-0.2-5.9-0.2-5.9L177,263.3z"/>
			<path fill="#5218AE" d="M142.4,217.1c0.9-1,2.4-1.4,3.7-1l2.8,0.8l7.6,3.5l3.5,2l2.3,17.7l0.5,8.2l-3.1,2.6
				c-3.7,3.5-15.2-2.6-15.2-2.6c-1.9-6.4-4.8-24-4.8-24C139.9,220.8,141.2,218.5,142.4,217.1z"/>
			<path fill="#894AEC" d="M161.6,244c0,0,8.8-1.7,13.7-2.1c1.8-0.2,3.3,1.2,3.4,3c0.2,4.4-0.3,13-1,19.6l-3,1.9
				c-1.3,0.8-3.1-0.1-3.2-1.7l-0.5-10.9c0-0.9-1.2,0.2-1.9,0.8c-2.2,1.9-7.6,4.1-10.9,2.9c0,0-9.8-3-12.1-9.4L161.6,244z"/>
			<linearGradient id="SVGID_45_" gradientUnits="userSpaceOnUse" x1="155.2092" y1="271.1019" x2="159.5289" y2="271.1019">
				<stop  offset="0" style="stop-color:#00C4CC"/>
				<stop  offset="1" style="stop-color:#7D2AE8"/>
			</linearGradient>
			<path fill="url(#SVGID_45_)" d="M156.8,259.6l2.8-1.4l-1.6,24.3c0,0.4-0.2,0.8-0.5,1c-0.4,0.3-0.7,0.5-1,0.5
				c-0.7,0.1-1.3-0.6-1.2-1.5L156.8,259.6z"/>
			<linearGradient id="SVGID_46_" gradientUnits="userSpaceOnUse" x1="135.0896" y1="259.9295" x2="139.5313" y2="259.9295">
				<stop  offset="0" style="stop-color:#00C4CC"/>
				<stop  offset="1" style="stop-color:#7D2AE8"/>
			</linearGradient>
			<path fill="url(#SVGID_46_)" d="M136.8,249.4l2.7-1.4l-1.8,22.4c0,0.4-0.2,0.8-0.5,1.1c-0.3,0.2-0.5,0.4-0.8,0.5
				c-0.8,0.2-1.4-0.6-1.4-1.6L136.8,249.4z"/>
			<linearGradient id="SVGID_47_" gradientUnits="userSpaceOnUse" x1="171.1822" y1="264.7816" x2="176.9569" y2="264.7816">
				<stop  offset="0" style="stop-color:#00C4CC"/>
				<stop  offset="1" style="stop-color:#7D2AE8"/>
			</linearGradient>
			<path fill="url(#SVGID_47_)" d="M173.7,254.3l3.2,19.5c0.1,0.4,0,0.9-0.3,1.2c-0.2,0.2-0.4,0.3-0.6,0.3c-0.4,0.1-0.9-0.3-1-0.8
				l-3.9-19.3L173.7,254.3z"/>
			<path fill="#F7CA82" d="M151.5,202.3c1.8-0.3,2.9-0.6,4.6-0.1c3,0.9,4.5,3.7,5.3,6.5c0.7,2.8,0.9,7-0.7,9.6
				c-1,1.6-3.3,1.3-4.9,0.9c-1.9-0.5-4.5-1.4-6.1-2.6c-2.2-1.7-3.4-5.4-3.5-8C146,206.3,148.7,202.8,151.5,202.3z"/>
			<path fill="#F7B378" d="M148.9,215.9c0.2,0.3,0.5,0.5,0.8,0.7c1.6,1.2,4.1,2,6.1,2.6c0.3,0.1,0.6,0.2,1,0.2l-0.2,1.1
				c-2.1,0.6-3.6-0.3-5.1-0.5c-1.1-0.1-2.2-0.4-2.5-1.4L148.9,215.9L148.9,215.9z"/>
			<linearGradient id="SVGID_48_" gradientUnits="userSpaceOnUse" x1="135.7378" y1="242.7482" x2="157.7207" y2="242.7482">
				<stop  offset="0" style="stop-color:#00C4CC"/>
				<stop  offset="1" style="stop-color:#7D2AE8"/>
			</linearGradient>
			<path fill="url(#SVGID_48_)" d="M137.9,225.4c11.5,2.4,17.3,8.5,19.2,10.8c0.4,0.5,0.7,1.2,0.7,1.9v22.1
				c-15.4-2.6-22-11.6-22-11.6v-21.5C135.7,226,136.8,225.1,137.9,225.4z"/>
			<linearGradient id="SVGID_49_" gradientUnits="userSpaceOnUse" x1="157.7207" y1="255.871" x2="175.1232" y2="255.871">
				<stop  offset="0" style="stop-color:#00C4CC"/>
				<stop  offset="1" style="stop-color:#7D2AE8"/>
			</linearGradient>
			<path fill="url(#SVGID_49_)" d="M157.7,260.2c0,0,13.3-1.3,17.4-5.9c0,0,0.3-3.1-1-2.7c-1.3,0.4-7.3,4.1-16.4,5.1V260.2z"/>
			<path fill="#9F6FEC" d="M162.8,202c0,0-2.1,2.3-4.7,0c-2.6-2.3-12.8-1.6-12.3,7.8l1.2,3l0,0c0.6,1.6,1.5,3,2.6,3.9
				c1.2,0.9,3,1.6,4.7,2.2c0.5-0.2,1.1-2.7,1.1-2.7c-0.9-0.5-1.7-3.6-0.7-4.2c1-0.5,1.7,1.4,1.7,1.4c0.6-0.2,1.4-0.9,1-2
				c-0.5-1.1,0-2.3,0-2.3c1.8,0,3.2-0.4,3.8-0.7C161.2,208.3,164.2,205.6,162.8,202z"/>
			<path fill="#E6E7E8" d="M148.8,216.7c0,0,1.9,2.7,7.9,3.1l0.9,1.3c0,0-5.2-0.2-7-0.9c-1.6-0.6-2.1-1.2-2.1-2.4L148.8,216.7z"/>
			<path fill="#E6E7E8" d="M174.7,238.4l1.3-0.3c0,0,1.3,2.4,1.2,4.3l-1.2,0.3L174.7,238.4z"/>
			<path fill="#9F6FEC" d="M175.1,238.2c-1.4,0.4-9.1,0.9-9.1,0.9s-0.9-9.8-2-12.8c-1.1-3.1-4-3.8-4-3.8c-5.1,2.5-2.4,8.9-2.4,8.9
				c2,5.5,2.9,10.1,3.4,12.5c0.2,1.1,1.2,1.8,2.3,1.6c6.8-1.1,13.2-2.7,13.2-2.7C176.4,240,175.1,238.2,175.1,238.2z"/>
		</g>
	</g>
	<ellipse opacity="0.2" fill="#2B3990" cx="270.4" cy="134.9" rx="20.6" ry="6.3"/>
	<g>
		<path fill="#F7CA82" d="M249.4,86c0.1-0.3,0.2-0.5,0.2-0.8c0-0.3-0.2-0.1-0.4,0.1c-0.4,0.5-0.7,1-1.1,1.5c-0.1,0.1-0.4,0.3-0.5,0
			c-0.1-0.9,0.5-1.9,0.9-2.6c0.3-0.5,0.6-1.1,1-1.6c0.2-0.3,0.4-0.5,0.6-0.8c0.1-0.1,0.5-0.4,0.5-0.6c0-0.3,0,0,0-0.3l3.8,0.5
			c0.1,0.5,0.1,1.1,0.1,1.6c0,1.3-0.2,1.9-0.7,3c-0.3,0.7-0.3,1.3-0.3,2.1c0,0.8,0.5,1.3,0.2,2c-0.3,0.8-2.4,0.9-3.7-0.2
			c-0.6-0.6-0.8-1.5-0.8-2.4c0-0.4,0-0.9,0.1-1.3C249.3,86.2,249.4,86.1,249.4,86z"/>
		<path fill="#E6E7E8" d="M250.2,79.9l-0.3,1.4c0,0,2.6,1.2,5,0.9l0.4-1.7L250.2,79.9z"/>
		<path fill="#5218AE" d="M254.5,46.8c0,0-1.8,19.2-4.5,33.4c0,0,2.2,1.5,5.4,1l2.9-15.7L254.5,46.8z"/>
		<path fill="#F7B378" d="M279.2,76.4c0,0-0.7,0.1-1.1,1.1c-0.4,1-1.7,2.6-2.1,2.3c-0.4-0.3,0-4.3,0-4.3l0.8-1.8L279.2,76.4z"/>
		<polygon fill="#E6E7E8" points="280.3,76.2 279.5,77.3 276,73.6 277,72.5 		"/>
		<path fill="#894AEC" d="M282.7,126.9c0,0,0.3,3.1,1.6,4.2c3.3,2.7,4.8,5.2,1.8,6.1c-3,0.9-9.1-2.5-9.7-4.8l0.4-6.8L282.7,126.9z"
			/>
		<path fill="#894AEC" d="M258.5,126.9c0,0-0.3,3.1-1.6,4.2c-3.3,2.7-4.8,5.2-1.8,6.1c3,0.9,9.1-2.5,9.7-4.8l-0.4-6.8L258.5,126.9z"
			/>
		<path fill="#894AEC" d="M256,75.8v53.7c0,0,5.2,2,9.5-0.7c0,0-0.2-25.6,0.7-39c0,0,0.7-0.9,1.2,0.7c0,0,6.3,26.2,7.9,38.7
			c0,0,5,1.2,9-1.2c0,0-4-22.9-4.4-25.8c-0.4-2.9-3.8-25.2-3.8-25.2S261.9,73.9,256,75.8z"/>
		<path fill="#F7B378" d="M273.9,36.8l-1.6,0.4l-0.2,2.5C274.2,39.9,273.9,36.8,273.9,36.8z"/>
		<path fill="#F7B378" d="M260,36.8l1.6,0.4l0.2,2.5C259.7,39.9,260,36.8,260,36.8z"/>
		<path fill="#BCBEC0" d="M262.3,42.8c0,0,3.2-1.1,9.3-0.1l-0.5,1.5l-6.9,1.4l-1.7-1.7L262.3,42.8z"/>
		<path fill="#5218AE" d="M271.4,43.6c0,0,8,1.7,8.8,2.6c0.8,0.9-1.2,12.8-2.1,15.4c-0.9,2.6-2.3,15.5-2.3,15.5s-9,3.9-19.9-1.3
			c0,0-0.5-9.3-1-14.2c-0.4-4.3-0.6-14.8-0.6-14.8s2.9-2.3,7.8-2.9C267.2,43.3,271.4,43.6,271.4,43.6z"/>
		<path fill="#5218AE" d="M280.3,46.2c0,0,8.3,12.8,10.8,19.1l-10.8,11.4l-3.7-4.1l7.2-7.3l-4.1-7.2l-5.3-7.2L280.3,46.2z"/>
		<path fill="#F7B378" d="M271.3,37.6l-0.3,6.3c0,0-3,2.9-8.1,0v-6.8L271.3,37.6z"/>
		<ellipse fill="#F7CA82" cx="266.9" cy="35.2" rx="6" ry="8.4"/>
		<path fill="#9F6FEC" d="M266.7,32.9c0,0,4.6-2.3,4.9,4.8c0,0,1.4,0.5,2.8-0.5c0,0,2.3-12.3-7.6-11.1c0,0-8.4-0.8-7.2,11.3
			c0,0,1.4,0.8,3.1,0.2C262.7,37.5,262.1,32,266.7,32.9z"/>
		<polygon fill="#F7B378" points="263,44.1 267,47.2 270.1,44.9 269.7,44.2 		"/>
		<polygon fill="#F1F2F2" points="271.6,42.7 267,47.2 270.4,49.4 272.1,43.8 		"/>
		<polygon fill="#F1F2F2" points="262.3,42.8 267,47.2 263.5,49.4 261.4,44 		"/>
		<path fill="#F1F2F2" d="M255.7,69.8c0,0.4,0,0.7,0.1,1.1c9.2,2.9,17.8,1.6,20.7,0.9c0-0.4,0.1-0.7,0.1-1.1
			C265.2,72.6,258.5,70.9,255.7,69.8z"/>
		<path fill="#F1F2F2" d="M255.9,72.9c0,0.4,0,0.7,0.1,1.1c8.8,2.8,17.1,1.6,20.2,1c0-0.3,0.1-0.7,0.1-1.1
			C265.3,75.6,258.8,74,255.9,72.9z"/>
		<path fill="#F7CA82" d="M276.6,73.8c0,0,0.4,0.7,0.3,1.2c-0.3,1.9,0.2,2,0.3,3c0.1,0.6-0.1,1.2-0.4,1.7c-0.2,0.3-0.6,0.9-1.1,0.9
			c-0.9-0.1-2-1.8-1.6-2.6c0.3-0.6,0.5-1.4,0.3-2.1c-0.1-0.8,0.2-1,0.8-1.4C275.4,74.3,276.5,73.6,276.6,73.8z"/>
	</g>
	<polygon fill="#E6E7E8" points="114.7,64.2 121.1,60.5 121.1,92.7 114.7,96.4 	"/>
	<polygon fill="#E6E7E8" points="123.8,59 130.2,55.3 130.2,87.5 123.8,91.2 	"/>
	<polygon fill="#E6E7E8" points="132.9,53.8 139.2,50.1 139.2,82.3 132.9,86 	"/>
	<polygon fill="#E6E7E8" points="141.9,48.6 148.3,44.9 148.3,77.1 141.9,80.8 	"/>
	<g>
		<polygon fill="#E6E7E8" points="191.1,7.6 191.1,9.6 173.1,20 173.1,18 		"/>
		<polygon fill="#E6E7E8" points="191.1,13.4 173.1,23.9 173.1,21.9 191.1,11.4 		"/>
		<polygon fill="#E6E7E8" points="191.1,17.3 173.1,27.7 173.1,25.7 191.1,15.3 		"/>
		<polygon fill="#E6E7E8" points="191.1,21.2 173.1,31.6 173.1,29.6 191.1,19.2 		"/>
	</g>
	<g>
		<polygon fill="#E6E7E8" points="191.1,27.7 191.1,29.7 173.1,40.2 173.1,38.2 		"/>
		<polygon fill="#E6E7E8" points="191.1,33.6 173.1,44 173.1,42 191.1,31.6 		"/>
		<polygon fill="#E6E7E8" points="191.1,37.5 173.1,47.9 173.1,45.9 191.1,35.4 		"/>
		<polygon fill="#E6E7E8" points="191.1,41.3 173.1,51.7 173.1,49.7 191.1,39.3 		"/>
	</g>
	<g>
		<polygon fill="#E6E7E8" points="22.7,134.3 22.7,136.3 4.7,146.7 4.7,144.7 		"/>
		<polygon fill="#E6E7E8" points="22.7,140.2 4.7,150.6 4.7,148.6 22.7,138.2 		"/>
		<polygon fill="#E6E7E8" points="22.7,144 4.7,154.5 4.7,152.4 22.7,142 		"/>
		<polygon fill="#E6E7E8" points="22.7,147.9 4.7,158.3 4.7,156.3 22.7,145.9 		"/>
	</g>
	<g>
		<polygon fill="#E6E7E8" points="22.7,152.8 22.7,154.8 4.7,165.2 4.7,163.2 		"/>
		<polygon fill="#E6E7E8" points="22.7,158.6 4.7,169 4.7,167 22.7,156.6 		"/>
		<polygon fill="#E6E7E8" points="22.7,162.5 4.7,172.9 4.7,170.9 22.7,160.5 		"/>
		<polygon fill="#E6E7E8" points="22.7,166.3 4.7,176.8 4.7,174.7 22.7,164.3 		"/>
	</g>
	<polygon fill="#E6E7E8" points="3,186.7 3,190.3 82.4,144.4 82.4,140.7 	"/>
	<g>
		<path fill="#E6E7E8" d="M66.4,114.9c-6.1,3.5-11,12-11,19c0,7,5,9.8,11,6.3c6.1-3.5,11-12,11-19C77.5,114.2,72.5,111.4,66.4,114.9
			z"/>
	</g>
	<polygon opacity="0.26" points="295.9,23.8 381,128.1 381,73 	"/>
</g>
</svg>
